<?xml version="1.0" standalone="no"?>
<!DOCTYPE svg PUBLIC "-//W3C//DTD SVG 20010904//EN"
 "http://www.w3.org/TR/2001/REC-SVG-20010904/DTD/svg10.dtd">
<svg version="1.0" xmlns="http://www.w3.org/2000/svg"
 width="500.000000pt" height="500.000000pt" viewBox="0 0 500.000000 500.000000"
 preserveAspectRatio="xMidYMid meet">

<g transform="translate(0.000000,500.000000) scale(0.100000,-0.100000)"
fill="teal" stroke="none">
<path d="M1111 4989 c-90 -18 -172 -87 -217 -183 l-24 -51 0 -2310 0 -2310 23
-37 c63 -103 169 -121 287 -48 25 15 189 116 365 225 677 418 921 568 940 577
21 10 138 -60 1205 -716 91 -56 178 -107 193 -114 38 -16 90 -15 134 3 48 20
71 41 94 87 18 36 19 100 19 2341 l0 2304 -30 61 c-35 69 -92 125 -159 156
l-46 21 -1370 2 c-753 0 -1390 -3 -1414 -8z m2649 -2410 c0 -1127 -3 -2048 -7
-2046 -8 5 -547 335 -945 579 -125 77 -243 144 -263 149 -62 18 -107 2 -252
-88 -76 -47 -219 -135 -318 -196 -99 -60 -268 -165 -375 -232 -237 -147 -348
-215 -355 -215 -3 0 -5 923 -5 2050 l0 2050 1260 0 1260 0 0 -2051z"/>
</g>
</svg>
