<svg id="visual" viewBox="0 0 960 540" width="960" height="540" xmlns="http://www.w3.org/2000/svg" xmlns:xlink="http://www.w3.org/1999/xlink" version="1.1"><path d="M739 540L724.3 527.2C709.7 514.3 680.3 488.7 670.5 463C660.7 437.3 670.3 411.7 669 386C667.7 360.3 655.3 334.7 642.5 308.8C629.7 283 616.3 257 625 231.2C633.7 205.3 664.3 179.7 658.2 154C652 128.3 609 102.7 614.2 77C619.3 51.3 672.7 25.7 699.3 12.8L726 0L960 0L960 12.8C960 25.7 960 51.3 960 77C960 102.7 960 128.3 960 154C960 179.7 960 205.3 960 231.2C960 257 960 283 960 308.8C960 334.7 960 360.3 960 386C960 411.7 960 437.3 960 463C960 488.7 960 514.3 960 527.2L960 540Z" fill="#009473"></path><path d="M676 540L671.7 527.2C667.3 514.3 658.7 488.7 673.3 463C688 437.3 726 411.7 727.2 386C728.3 360.3 692.7 334.7 679 308.8C665.3 283 673.7 257 683.3 231.2C693 205.3 704 179.7 701 154C698 128.3 681 102.7 666.7 77C652.3 51.3 640.7 25.7 634.8 12.8L629 0L960 0L960 12.8C960 25.7 960 51.3 960 77C960 102.7 960 128.3 960 154C960 179.7 960 205.3 960 231.2C960 257 960 283 960 308.8C960 334.7 960 360.3 960 386C960 411.7 960 437.3 960 463C960 488.7 960 514.3 960 527.2L960 540Z" fill="#008164"></path><path d="M766 540L766.7 527.2C767.3 514.3 768.7 488.7 758.5 463C748.3 437.3 726.7 411.7 723.7 386C720.7 360.3 736.3 334.7 736.5 308.8C736.7 283 721.3 257 728.5 231.2C735.7 205.3 765.3 179.7 778.7 154C792 128.3 789 102.7 783.5 77C778 51.3 770 25.7 766 12.8L762 0L960 0L960 12.8C960 25.7 960 51.3 960 77C960 102.7 960 128.3 960 154C960 179.7 960 205.3 960 231.2C960 257 960 283 960 308.8C960 334.7 960 360.3 960 386C960 411.7 960 437.3 960 463C960 488.7 960 514.3 960 527.2L960 540Z" fill="#006e56"></path><path d="M833 540L822.2 527.2C811.3 514.3 789.7 488.7 791.2 463C792.7 437.3 817.3 411.7 823.7 386C830 360.3 818 334.7 808.7 308.8C799.3 283 792.7 257 783.8 231.2C775 205.3 764 179.7 755.7 154C747.3 128.3 741.7 102.7 735.3 77C729 51.3 722 25.7 718.5 12.8L715 0L960 0L960 12.8C960 25.7 960 51.3 960 77C960 102.7 960 128.3 960 154C960 179.7 960 205.3 960 231.2C960 257 960 283 960 308.8C960 334.7 960 360.3 960 386C960 411.7 960 437.3 960 463C960 488.7 960 514.3 960 527.2L960 540Z" fill="#005c48"></path><path d="M803 540L814.2 527.2C825.3 514.3 847.7 488.7 855.5 463C863.3 437.3 856.7 411.7 857 386C857.3 360.3 864.7 334.7 866.5 308.8C868.3 283 864.7 257 856.5 231.2C848.3 205.3 835.7 179.7 819.7 154C803.7 128.3 784.3 102.7 784.3 77C784.3 51.3 803.7 25.7 813.3 12.8L823 0L960 0L960 12.8C960 25.7 960 51.3 960 77C960 102.7 960 128.3 960 154C960 179.7 960 205.3 960 231.2C960 257 960 283 960 308.8C960 334.7 960 360.3 960 386C960 411.7 960 437.3 960 463C960 488.7 960 514.3 960 527.2L960 540Z" fill="#004a3a"></path><path d="M824 540L824.7 527.2C825.3 514.3 826.7 488.7 832 463C837.3 437.3 846.7 411.7 859.5 386C872.3 360.3 888.7 334.7 894.2 308.8C899.7 283 894.3 257 880.8 231.2C867.3 205.3 845.7 179.7 839.3 154C833 128.3 842 102.7 850 77C858 51.3 865 25.7 868.5 12.8L872 0L960 0L960 12.8C960 25.7 960 51.3 960 77C960 102.7 960 128.3 960 154C960 179.7 960 205.3 960 231.2C960 257 960 283 960 308.8C960 334.7 960 360.3 960 386C960 411.7 960 437.3 960 463C960 488.7 960 514.3 960 527.2L960 540Z" fill="#00392d"></path><path d="M933 540L921.7 527.2C910.3 514.3 887.7 488.7 887.8 463C888 437.3 911 411.7 911.3 386C911.7 360.3 889.3 334.7 883.5 308.8C877.7 283 888.3 257 898.3 231.2C908.3 205.3 917.7 179.7 923.8 154C930 128.3 933 102.7 926 77C919 51.3 902 25.7 893.5 12.8L885 0L960 0L960 12.8C960 25.7 960 51.3 960 77C960 102.7 960 128.3 960 154C960 179.7 960 205.3 960 231.2C960 257 960 283 960 308.8C960 334.7 960 360.3 960 386C960 411.7 960 437.3 960 463C960 488.7 960 514.3 960 527.2L960 540Z" fill="#002920"></path></svg>