<svg id="visual" viewBox="0 0 960 540" width="960" height="540" xmlns="http://www.w3.org/2000/svg" xmlns:xlink="http://www.w3.org/1999/xlink" version="1.1"><path d="M737 540L714.3 527.2C691.7 514.3 646.3 488.7 642.7 463C639 437.3 677 411.7 674.3 386C671.7 360.3 628.3 334.7 633 308.8C637.7 283 690.3 257 686.8 231.2C683.3 205.3 623.7 179.7 612.5 154C601.3 128.3 638.7 102.7 636.5 77C634.3 51.3 592.7 25.7 571.8 12.8L551 0L960 0L960 12.8C960 25.7 960 51.3 960 77C960 102.7 960 128.3 960 154C960 179.7 960 205.3 960 231.2C960 257 960 283 960 308.8C960 334.7 960 360.3 960 386C960 411.7 960 437.3 960 463C960 488.7 960 514.3 960 527.2L960 540Z" fill="#009473"></path><path d="M740 540L734.8 527.2C729.7 514.3 719.3 488.7 723.7 463C728 437.3 747 411.7 750.8 386C754.7 360.3 743.3 334.7 739.3 308.8C735.3 283 738.7 257 727.2 231.2C715.7 205.3 689.3 179.7 677.7 154C666 128.3 669 102.7 665.5 77C662 51.3 652 25.7 647 12.8L642 0L960 0L960 12.8C960 25.7 960 51.3 960 77C960 102.7 960 128.3 960 154C960 179.7 960 205.3 960 231.2C960 257 960 283 960 308.8C960 334.7 960 360.3 960 386C960 411.7 960 437.3 960 463C960 488.7 960 514.3 960 527.2L960 540Z" fill="#008164"></path><path d="M719 540L713.2 527.2C707.3 514.3 695.7 488.7 703.7 463C711.7 437.3 739.3 411.7 758 386C776.7 360.3 786.3 334.7 783 308.8C779.7 283 763.3 257 750 231.2C736.7 205.3 726.3 179.7 727 154C727.7 128.3 739.3 102.7 735.8 77C732.3 51.3 713.7 25.7 704.3 12.8L695 0L960 0L960 12.8C960 25.7 960 51.3 960 77C960 102.7 960 128.3 960 154C960 179.7 960 205.3 960 231.2C960 257 960 283 960 308.8C960 334.7 960 360.3 960 386C960 411.7 960 437.3 960 463C960 488.7 960 514.3 960 527.2L960 540Z" fill="#006e56"></path><path d="M834 540L825.5 527.2C817 514.3 800 488.7 791.5 463C783 437.3 783 411.7 771.7 386C760.3 360.3 737.7 334.7 730 308.8C722.3 283 729.7 257 737.8 231.2C746 205.3 755 179.7 758.3 154C761.7 128.3 759.3 102.7 750.5 77C741.7 51.3 726.3 25.7 718.7 12.8L711 0L960 0L960 12.8C960 25.7 960 51.3 960 77C960 102.7 960 128.3 960 154C960 179.7 960 205.3 960 231.2C960 257 960 283 960 308.8C960 334.7 960 360.3 960 386C960 411.7 960 437.3 960 463C960 488.7 960 514.3 960 527.2L960 540Z" fill="#005c48"></path><path d="M785 540L798.7 527.2C812.3 514.3 839.7 488.7 848.5 463C857.3 437.3 847.7 411.7 830.5 386C813.3 360.3 788.7 334.7 785.8 308.8C783 283 802 257 801.7 231.2C801.3 205.3 781.7 179.7 775.5 154C769.3 128.3 776.7 102.7 795 77C813.3 51.3 842.7 25.7 857.3 12.8L872 0L960 0L960 12.8C960 25.7 960 51.3 960 77C960 102.7 960 128.3 960 154C960 179.7 960 205.3 960 231.2C960 257 960 283 960 308.8C960 334.7 960 360.3 960 386C960 411.7 960 437.3 960 463C960 488.7 960 514.3 960 527.2L960 540Z" fill="#004a3a"></path><path d="M867 540L860.3 527.2C853.7 514.3 840.3 488.7 836.7 463C833 437.3 839 411.7 847.3 386C855.7 360.3 866.3 334.7 864.5 308.8C862.7 283 848.3 257 844.2 231.2C840 205.3 846 179.7 856.5 154C867 128.3 882 102.7 887.3 77C892.7 51.3 888.3 25.7 886.2 12.8L884 0L960 0L960 12.8C960 25.7 960 51.3 960 77C960 102.7 960 128.3 960 154C960 179.7 960 205.3 960 231.2C960 257 960 283 960 308.8C960 334.7 960 360.3 960 386C960 411.7 960 437.3 960 463C960 488.7 960 514.3 960 527.2L960 540Z" fill="#00392d"></path><path d="M930 540L925.7 527.2C921.3 514.3 912.7 488.7 904.8 463C897 437.3 890 411.7 894.5 386C899 360.3 915 334.7 916.3 308.8C917.7 283 904.3 257 894.5 231.2C884.7 205.3 878.3 179.7 882.5 154C886.7 128.3 901.3 102.7 907.3 77C913.3 51.3 910.7 25.7 909.3 12.8L908 0L960 0L960 12.8C960 25.7 960 51.3 960 77C960 102.7 960 128.3 960 154C960 179.7 960 205.3 960 231.2C960 257 960 283 960 308.8C960 334.7 960 360.3 960 386C960 411.7 960 437.3 960 463C960 488.7 960 514.3 960 527.2L960 540Z" fill="#002920"></path></svg>