<svg id="visual" viewBox="0 0 960 540" width="960" height="540" xmlns="http://www.w3.org/2000/svg" xmlns:xlink="http://www.w3.org/1999/xlink" version="1.1"><path d="M612 540L620.3 527.2C628.7 514.3 645.3 488.7 656.5 463C667.7 437.3 673.3 411.7 671.5 386C669.7 360.3 660.3 334.7 655.8 308.8C651.3 283 651.7 257 640 231.2C628.3 205.3 604.7 179.7 606.8 154C609 128.3 637 102.7 637.5 77C638 51.3 611 25.7 597.5 12.8L584 0L960 0L960 12.8C960 25.7 960 51.3 960 77C960 102.7 960 128.3 960 154C960 179.7 960 205.3 960 231.2C960 257 960 283 960 308.8C960 334.7 960 360.3 960 386C960 411.7 960 437.3 960 463C960 488.7 960 514.3 960 527.2L960 540Z" fill="#009473"></path><path d="M753 540L743.7 527.2C734.3 514.3 715.7 488.7 711.5 463C707.3 437.3 717.7 411.7 726 386C734.3 360.3 740.7 334.7 737 308.8C733.3 283 719.7 257 707.2 231.2C694.7 205.3 683.3 179.7 674.3 154C665.3 128.3 658.7 102.7 654.5 77C650.3 51.3 648.7 25.7 647.8 12.8L647 0L960 0L960 12.8C960 25.7 960 51.3 960 77C960 102.7 960 128.3 960 154C960 179.7 960 205.3 960 231.2C960 257 960 283 960 308.8C960 334.7 960 360.3 960 386C960 411.7 960 437.3 960 463C960 488.7 960 514.3 960 527.2L960 540Z" fill="#00775d"></path><path d="M737 540L732.5 527.2C728 514.3 719 488.7 732.5 463C746 437.3 782 411.7 798.5 386C815 360.3 812 334.7 798.2 308.8C784.3 283 759.7 257 751.7 231.2C743.7 205.3 752.3 179.7 764.3 154C776.3 128.3 791.7 102.7 801.5 77C811.3 51.3 815.7 25.7 817.8 12.8L820 0L960 0L960 12.8C960 25.7 960 51.3 960 77C960 102.7 960 128.3 960 154C960 179.7 960 205.3 960 231.2C960 257 960 283 960 308.8C960 334.7 960 360.3 960 386C960 411.7 960 437.3 960 463C960 488.7 960 514.3 960 527.2L960 540Z" fill="#005b48"></path><path d="M868 540L867.7 527.2C867.3 514.3 866.7 488.7 852.2 463C837.7 437.3 809.3 411.7 802 386C794.7 360.3 808.3 334.7 808 308.8C807.7 283 793.3 257 794.8 231.2C796.3 205.3 813.7 179.7 819 154C824.3 128.3 817.7 102.7 814.3 77C811 51.3 811 25.7 811 12.8L811 0L960 0L960 12.8C960 25.7 960 51.3 960 77C960 102.7 960 128.3 960 154C960 179.7 960 205.3 960 231.2C960 257 960 283 960 308.8C960 334.7 960 360.3 960 386C960 411.7 960 437.3 960 463C960 488.7 960 514.3 960 527.2L960 540Z" fill="#014134"></path><path d="M847 540L848.3 527.2C849.7 514.3 852.3 488.7 854.2 463C856 437.3 857 411.7 856.2 386C855.3 360.3 852.7 334.7 862.5 308.8C872.3 283 894.7 257 901.8 231.2C909 205.3 901 179.7 900.7 154C900.3 128.3 907.7 102.7 900.3 77C893 51.3 871 25.7 860 12.8L849 0L960 0L960 12.8C960 25.7 960 51.3 960 77C960 102.7 960 128.3 960 154C960 179.7 960 205.3 960 231.2C960 257 960 283 960 308.8C960 334.7 960 360.3 960 386C960 411.7 960 437.3 960 463C960 488.7 960 514.3 960 527.2L960 540Z" fill="#022820"></path></svg>