<svg id="visual" viewBox="0 0 960 540" width="960" height="540" xmlns="http://www.w3.org/2000/svg" xmlns:xlink="http://www.w3.org/1999/xlink" version="1.1"><path d="M585 540L677 473L689 405L601 338L520 270L528 203L701 135L497 68L540 0L960 0L960 68L960 135L960 203L960 270L960 338L960 405L960 473L960 540Z" fill="#009473"></path><path d="M690 540L621 473L738 405L693 338L654 270L664 203L614 135L698 68L606 0L960 0L960 68L960 135L960 203L960 270L960 338L960 405L960 473L960 540Z" fill="#008568"></path><path d="M749 540L699 473L686 405L651 338L736 270L701 203L732 135L757 68L747 0L960 0L960 68L960 135L960 203L960 270L960 338L960 405L960 473L960 540Z" fill="#01765c"></path><path d="M710 540L816 473L804 405L786 338L773 270L685 203L778 135L792 68L721 0L960 0L960 68L960 135L960 203L960 270L960 338L960 405L960 473L960 540Z" fill="#026751"></path><path d="M723 540L761 473L794 405L770 338L787 270L727 203L773 135L855 68L787 0L960 0L960 68L960 135L960 203L960 270L960 338L960 405L960 473L960 540Z" fill="#035946"></path><path d="M872 540L803 473L796 405L873 338L856 270L822 203L809 135L850 68L852 0L960 0L960 68L960 135L960 203L960 270L960 338L960 405L960 473L960 540Z" fill="#044b3b"></path><path d="M906 540L911 473L858 405L894 338L872 270L909 203L897 135L857 68L891 0L960 0L960 68L960 135L960 203L960 270L960 338L960 405L960 473L960 540Z" fill="#043e31"></path></svg>