<svg id="visual" viewBox="0 0 960 540" width="960" height="540" xmlns="http://www.w3.org/2000/svg" xmlns:xlink="http://www.w3.org/1999/xlink" version="1.1"><path d="M486 540L565 473L701 405L651 338L700 270L567 203L582 135L611 68L497 0L960 0L960 68L960 135L960 203L960 270L960 338L960 405L960 473L960 540Z" fill="#009473"></path><path d="M534 540L668 473L537 405L588 338L571 270L707 203L660 135L678 68L708 0L960 0L960 68L960 135L960 203L960 270L960 338L960 405L960 473L960 540Z" fill="#008568"></path><path d="M743 540L773 473L676 405L764 338L612 270L634 203L668 135L669 68L757 0L960 0L960 68L960 135L960 203L960 270L960 338L960 405L960 473L960 540Z" fill="#01765c"></path><path d="M770 540L713 473L666 405L798 338L742 270L784 203L716 135L808 68L657 0L960 0L960 68L960 135L960 203L960 270L960 338L960 405L960 473L960 540Z" fill="#026751"></path><path d="M795 540L850 473L781 405L746 338L792 270L788 203L822 135L795 68L796 0L960 0L960 68L960 135L960 203L960 270L960 338L960 405L960 473L960 540Z" fill="#035946"></path><path d="M783 540L854 473L789 405L815 338L827 270L851 203L889 135L871 68L855 0L960 0L960 68L960 135L960 203L960 270L960 338L960 405L960 473L960 540Z" fill="#044b3b"></path><path d="M876 540L929 473L902 405L921 338L855 270L919 203L880 135L897 68L911 0L960 0L960 68L960 135L960 203L960 270L960 338L960 405L960 473L960 540Z" fill="#043e31"></path></svg>